<svg id="Capa_1" data-name="Capa 1" xmlns="http://www.w3.org/2000/svg" viewBox="0 0 202.5 72"><title>radiacion-uv-logo</title><path d="M157.33,37.3a13.3,13.3,0,0,1-1.11,3.89A6.31,6.31,0,0,1,154,43.75a5.51,5.51,0,0,1-3,.78,4.18,4.18,0,0,1-3.56-1.78L147,44.3h-2.78l3.45-20h3.11l-1.45,7.34A5,5,0,0,1,153.1,30a4.2,4.2,0,0,1,3.22,1.45,6.14,6.14,0,0,1,1.22,4A8,8,0,0,0,157.33,37.3Zm-3-1.78a4.09,4.09,0,0,0-.56-2.22,1.87,1.87,0,0,0-1.67-.78A3.58,3.58,0,0,0,149,34.3l-1,5.78A2.5,2.5,0,0,0,150.43,42,3,3,0,0,0,153,40.75a7.48,7.48,0,0,0,1.33-3.45C154.33,36.52,154.33,36,154.33,35.52Z" style="fill:#959595"/><path d="M165.11,44.53a6.08,6.08,0,0,1-3.22-.89,5.44,5.44,0,0,1-2-2.45,6.87,6.87,0,0,1-.44-3.45V37.19a9.4,9.4,0,0,1,1.22-3.89,6.28,6.28,0,0,1,2.56-2.56,6.79,6.79,0,0,1,3.34-.89,4.49,4.49,0,0,1,4,2,7,7,0,0,1,1,5l-0.22,1.33h-8.9a3.47,3.47,0,0,0,.67,2.67,2.65,2.65,0,0,0,2.22,1A4.84,4.84,0,0,0,169,40.08l1.56,1.67A6.84,6.84,0,0,1,165.11,44.53Zm1.33-12.12c-1.67,0-2.89,1.11-3.67,3.45h5.89V35.63a2.28,2.28,0,0,0,0-1.22,2.07,2.07,0,0,0-.78-1.45A2.11,2.11,0,0,0,166.45,32.41Z" style="fill:#959595"/><path d="M179.68,26.74l-0.56,3.45h2.45l-0.44,2.34h-2.45l-1.33,7.9V41a0.91,0.91,0,0,0,1,.89,4.17,4.17,0,0,0,1.11-.11l-0.22,2.45a5.83,5.83,0,0,1-1.89.22,2.73,2.73,0,0,1-2.45-1.11,4,4,0,0,1-.67-2.89l1.33-8h-2.22l0.44-2.34H176l0.56-3.45h3.11v0.11h0Z" style="fill:#959595"/><path d="M189.91,44.3A4.58,4.58,0,0,1,189.8,43,5.21,5.21,0,0,1,186,44.53a4.11,4.11,0,0,1-3-1.22,3.54,3.54,0,0,1-1.11-2.89,4.59,4.59,0,0,1,1.89-3.56,8.21,8.21,0,0,1,4.89-1.22h2l0.22-1v-1A1.74,1.74,0,0,0,189,32.18a2.62,2.62,0,0,0-1.78.56,2,2,0,0,0-.89,1.45h-3.11a4.3,4.3,0,0,1,.89-2.34,6.64,6.64,0,0,1,2.22-1.56,6.4,6.4,0,0,1,2.89-.56,4.53,4.53,0,0,1,3.56,1.33,4.48,4.48,0,0,1,1.11,3.45l-1.11,6.56-0.11,1.22a3.05,3.05,0,0,0,.22,1.45V44h-3V44.3ZM186.8,42a3.26,3.26,0,0,0,1.78-.44A7.66,7.66,0,0,0,190,40.3l0.44-2.67H189a5.14,5.14,0,0,0-2.78.67A2.52,2.52,0,0,0,185,40.08a1.73,1.73,0,0,0,.33,1.33A1.75,1.75,0,0,0,186.8,42Z" style="fill:#959595"/><path d="M14.44,38.17h-3.1v6.15H8.57v-16h5.62a6.54,6.54,0,0,1,4.27,1.24A4.4,4.4,0,0,1,20,33.17a4.5,4.5,0,0,1-.77,2.69A4.92,4.92,0,0,1,17,37.52l3.59,6.66v0.14h-3Zm-3.1-2.24H14.2a3.18,3.18,0,0,0,2.2-.71,2.47,2.47,0,0,0,.79-1.94,2.63,2.63,0,0,0-.73-2,3.1,3.1,0,0,0-2.18-.72H11.35v5.36Z" style="fill:#03a9f4"/><path d="M29.44,44.32a4.11,4.11,0,0,1-.31-1.11,4.49,4.49,0,0,1-6,.31A3.27,3.27,0,0,1,22,41a3.37,3.37,0,0,1,1.41-2.92,6.83,6.83,0,0,1,4-1H29V36.29a2.08,2.08,0,0,0-.52-1.48A2,2,0,0,0,27,34.25a2.35,2.35,0,0,0-1.49.46,1.41,1.41,0,0,0-.58,1.16H22.22A3,3,0,0,1,22.87,34a4.32,4.32,0,0,1,1.76-1.33,6.19,6.19,0,0,1,2.49-.48,5,5,0,0,1,3.33,1,3.74,3.74,0,0,1,1.27,2.95v5.36a6.08,6.08,0,0,0,.45,2.56v0.19H29.44ZM26.51,42.4A3,3,0,0,0,28,42a2.57,2.57,0,0,0,1-1V38.74H27.61a3.93,3.93,0,0,0-2.23.52,1.67,1.67,0,0,0-.75,1.46,1.56,1.56,0,0,0,.51,1.22A2,2,0,0,0,26.51,42.4Z" style="fill:#03a9f4"/><path d="M34,38.29a7.06,7.06,0,0,1,1.27-4.41,4.08,4.08,0,0,1,3.41-1.66,3.88,3.88,0,0,1,3.05,1.32V27.46h2.67V44.32H42l-0.13-1.23a3.93,3.93,0,0,1-3.2,1.45,4.06,4.06,0,0,1-3.38-1.68A7.32,7.32,0,0,1,34,38.29Zm2.67,0.23a4.94,4.94,0,0,0,.7,2.83,2.26,2.26,0,0,0,2,1,2.52,2.52,0,0,0,2.39-1.46V35.84a2.48,2.48,0,0,0-2.37-1.43,2.28,2.28,0,0,0-2,1A5.51,5.51,0,0,0,36.68,38.53Z" style="fill:#03a9f4"/><path d="M47.21,29.35a1.43,1.43,0,0,1,.39-1,1.46,1.46,0,0,1,1.11-.41,1.48,1.48,0,0,1,1.12.41,1.42,1.42,0,0,1,.39,1,1.39,1.39,0,0,1-.39,1,1.49,1.49,0,0,1-1.12.4,1.48,1.48,0,0,1-1.11-.4A1.4,1.4,0,0,1,47.21,29.35Zm2.83,15H47.37V32.44H50V44.32Z" style="fill:#03a9f4"/><path d="M60,44.32a4.11,4.11,0,0,1-.31-1.11,4.49,4.49,0,0,1-6,.31A3.27,3.27,0,0,1,52.57,41,3.37,3.37,0,0,1,54,38.08a6.83,6.83,0,0,1,4-1h1.64V36.29a2.08,2.08,0,0,0-.52-1.48,2,2,0,0,0-1.57-.55,2.35,2.35,0,0,0-1.49.46,1.41,1.41,0,0,0-.58,1.16H52.82A3,3,0,0,1,53.47,34a4.32,4.32,0,0,1,1.76-1.33,6.19,6.19,0,0,1,2.49-.48,5,5,0,0,1,3.33,1,3.74,3.74,0,0,1,1.27,2.95v5.36a6.08,6.08,0,0,0,.45,2.56v0.19H60ZM57.11,42.4A3,3,0,0,0,58.6,42a2.57,2.57,0,0,0,1-1V38.74H58.21a3.93,3.93,0,0,0-2.23.52,1.67,1.67,0,0,0-.75,1.46,1.56,1.56,0,0,0,.51,1.22A2,2,0,0,0,57.11,42.4Z" style="fill:#03a9f4"/><path d="M70,42.41a2.41,2.41,0,0,0,1.66-.58,2,2,0,0,0,.7-1.44h2.51a3.91,3.91,0,0,1-.69,2.07A4.54,4.54,0,0,1,72.42,44a5.24,5.24,0,0,1-2.39.56,5.06,5.06,0,0,1-4-1.61,6.4,6.4,0,0,1-1.46-4.46V38.2a6.3,6.3,0,0,1,1.45-4.34,5,5,0,0,1,4-1.63,4.88,4.88,0,0,1,3.45,1.24,4.42,4.42,0,0,1,1.4,3.24H72.35a2.44,2.44,0,0,0-.7-1.68A2.24,2.24,0,0,0,70,34.36a2.35,2.35,0,0,0-2,.94,4.8,4.8,0,0,0-.71,2.85v0.43a4.87,4.87,0,0,0,.7,2.88A2.35,2.35,0,0,0,70,42.41Z" style="fill:#03a9f4"/><path d="M76.89,29.35a1.43,1.43,0,0,1,.39-1,1.46,1.46,0,0,1,1.11-.41,1.48,1.48,0,0,1,1.12.41,1.42,1.42,0,0,1,.39,1,1.39,1.39,0,0,1-.39,1,1.49,1.49,0,0,1-1.12.4,1.48,1.48,0,0,1-1.11-.4A1.4,1.4,0,0,1,76.89,29.35Zm2.83,15H77.05V32.44h2.67V44.32Z" style="fill:#03a9f4"/><path d="M82.13,38.27a7,7,0,0,1,.69-3.15A5,5,0,0,1,84.76,33a5.48,5.48,0,0,1,2.88-.75,5.19,5.19,0,0,1,3.9,1.55,6.09,6.09,0,0,1,1.62,4.11V38.5a7.06,7.06,0,0,1-.67,3.14,5,5,0,0,1-1.93,2.14,5.52,5.52,0,0,1-2.9.76,5.15,5.15,0,0,1-4-1.67,6.41,6.41,0,0,1-1.51-4.46V38.27Zm2.67,0.23a4.79,4.79,0,0,0,.76,2.87,2.46,2.46,0,0,0,2.11,1,2.43,2.43,0,0,0,2.1-1.05,5.28,5.28,0,0,0,.75-3.09,4.73,4.73,0,0,0-.77-2.85,2.47,2.47,0,0,0-2.1-1.05,2.45,2.45,0,0,0-2.08,1A5.19,5.19,0,0,0,84.79,38.5Zm3.58-11h3l-3,3.33H86.23Z" style="fill:#03a9f4"/><path d="M97.9,32.44L98,33.82a4.27,4.27,0,0,1,3.46-1.59q3.71,0,3.78,4.25v7.85h-2.67v-7.7a2.45,2.45,0,0,0-.49-1.67,2.06,2.06,0,0,0-1.6-.54,2.57,2.57,0,0,0-2.4,1.46v8.45H95.39V32.44H97.9Z" style="fill:#03a9f4"/><path d="M125.49,28.34V39a5.19,5.19,0,0,1-1.63,4,7.15,7.15,0,0,1-8.7,0A5.22,5.22,0,0,1,113.54,39V28.34h2.77V39a3.39,3.39,0,0,0,.81,2.44,3.17,3.17,0,0,0,2.39.84q3.21,0,3.21-3.38V28.34h2.77Z" style="fill:#03a9f4"/><path d="M134.08,40.84l4.06-12.51h3.05l-5.75,16h-2.69l-5.73-16h3Z" style="fill:#03a9f4"/></svg>