<svg xmlns="http://www.w3.org/2000/svg" xmlns:xlink="http://www.w3.org/1999/xlink" x="0px" y="0px" viewBox="0 0 70 70" enable-background="new 0 0 70 70" xml:space="preserve">
	<circle fill="black" cx="35" cy="35" r="35" />
	<g>
		<path fill="none" stroke="gray" stroke-width="2" stroke-linecap="round" stroke-linejoin="round" stroke-miterlimit="10" d="M59.4,34.3c-1.5,1.4-3,2.7-4.5,4.1c-0.6-0.7-1.3-1.4-1.9-2c-1.7-1.9-3.4-3.7-5.1-5.6c-0.6-0.6-1.1-1-1.9-0.5c0,6.1,0,12.3,0,18.5c-7.5,0-14.9,0-22.4,0c0-6.2,0-12.3,0-18.5c-0.6-0.4-1-0.2-1.4,0.2c-2.2,2.5-4.4,4.9-6.7,7.3c-0.2,0.2-0.3,0.3-0.5,0.5c-1.5-1.4-3-2.7-4.5-4.1c1-1.1,2-2.2,2.9-3.2c2.7-2.9,5.3-5.8,8-8.8c0.6-0.7,1.5-1,2.4-1c1.7,0,3.3,0,5,0c0.2,0,0.5,0.2,0.6,0.4c1.2,2.1,2.4,4.1,3.6,6.2c0.9,1.6,2.6,1.6,3.5,0c1.2-2.1,2.4-4.1,3.6-6.2c0.1-0.2,0.4-0.4,0.5-0.4c2,0,4-0.1,5.9,0.1c0.6,0,1.4,0.5,1.8,0.9C52,26.1,55.5,30,59,33.8C59.2,33.9,59.3,34.1,59.4,34.3z" />
	</g>
</svg>
